<svg xmlns="http://www.w3.org/2000/svg" viewBox="0 0 399.19 532.64"><defs><style>.cls-1{fill:#fff;}.cls-2{fill:#371a45;}.cls-3{opacity:0.3;}.cls-4{fill:#6b184e;}.cls-5{opacity:0.35;}.cls-6{fill:#22a7f0;}.cls-7{opacity:0.7;}.cls-8{opacity:0.5;}.cls-9{fill:#111a28;}</style></defs><g id="Layer_2" data-name="Layer 2"><g id="Layer_1-2" data-name="Layer 1"><rect class="cls-1" x="137.53" y="207.68" width="201.84" height="189.11" rx="39.24" transform="translate(476.9 604.48) rotate(180)"/><path class="cls-1" d="M339.36,246.28V358.21c0,21.22-17.95,38.59-39.9,38.59h-122c-21.94,0-39.9-17.37-39.9-38.59V246.28a37.1,37.1,0,0,1,4.14-17.07A38.93,38.93,0,0,1,149.32,219a40.44,40.44,0,0,1,26.09-11.21c.68,0,1.35-.05,2-.05H299.48a40.11,40.11,0,0,1,36.28,22.61,37,37,0,0,1,3.6,16Z"/><path class="cls-2" d="M300.12,207.68a39.36,39.36,0,0,1,39.25,39.25V357.55a39.36,39.36,0,0,1-39.25,39.25H176.77a39.36,39.36,0,0,1-39.24-39.25V246.93a39.36,39.36,0,0,1,39.24-39.25H300.12m0-8.08H176.77a47.38,47.38,0,0,0-47.33,47.33V357.55a47.38,47.38,0,0,0,47.33,47.33H300.12a47.38,47.38,0,0,0,47.33-47.33V246.93a47.38,47.38,0,0,0-47.33-47.33Z"/><g class="cls-3"><path class="cls-4" d="M335,252l-.52.27a6.09,6.09,0,0,1,0-.74,8.86,8.86,0,0,1,.12-1,1.22,1.22,0,0,1,.06-.26.52.52,0,0,1,0-.11c0-.1.05-.2.07-.29l.08-.26a.56.56,0,0,1,0-.12l.09-.28c0-.11.09-.21.13-.32,0,.12-.05.23-.07.35a6.42,6.42,0,0,0-.1.75A8.61,8.61,0,0,0,335,252Z"/></g><path class="cls-1" d="M183.07,214.65l-3.3,8.67-2.8,7.35-2.43,6.4-14.35,37.67c-2.33.65-4.7,1.23-7.15,1.72-30.65,6.3-71.14-.36-126.4-62.32C18,204.45-2.86,198.58,6.23,176.55c9.31-22.54,22.39-19.72,22.39-19.72s-3.43-11.17,4-16.83c10.43-8,22.8,3.85,34.81,12.28,1.71,1.21.95-15,12.23-14.49,16.15.69,15.29,37.55,15.29,37.55s21.78,23.91,55.59,34.45a105.58,105.58,0,0,0,27.91,4.81C180,214.65,181.51,214.67,183.07,214.65Z"/><g class="cls-5"><path class="cls-2" d="M160.19,274.74h0c-31.44,8.73-73.88,6.3-133.55-60.6-8.64-9.69-29.5-15.56-20.4-37.59,5.58-13.54,12.53-17.92,17.19-19.27-1.58,2.39-2.71,5.53-4.6,8.86-10.64,18.74,18.49,36.93,26.52,33.6,4.92-2,6.66-4,9.5-13.43,3-10,7.73-14.77,8.28-14.15,2.52,2.83,2.58,37.7,8.38,50,14.77,31.27,54.54,46.65,83.4,45.31A5.38,5.38,0,0,1,160.19,274.74Z"/></g><path class="cls-2" d="M135,282.36c-27.47,0-64.28-12.86-111.29-65.57a52,52,0,0,0-7.58-6.36C7,203.66-5.43,194.38,2.56,175c6.74-16.33,15.69-20.84,21.38-21.95-.38-4.68.26-11.67,6.23-16.24,11.29-8.64,23.53.43,34.34,8.43l1,.74c1.52-5,5-12.62,14.29-12.2,17.84.77,19.09,31.59,19.1,39.94,6.24,6.27,39.55,37.53,84.11,36.93h.06a4,4,0,0,1,0,7.95C130.19,219.29,93.52,179.7,92,178a3.91,3.91,0,0,1-1-2.76c.24-10.76-2.25-33.1-11.49-33.5-3.95-.16-5.49,3-7,8.88-.6,2.45-1.13,4.56-3.45,5.43a4.25,4.25,0,0,1-3.93-.52c-1.77-1.25-3.56-2.57-5.34-3.89-11.35-8.4-18.68-13.16-24.78-8.49-5.08,3.88-2.6,12.43-2.58,12.52a4,4,0,0,1-4.64,5c-.33,0-10.11-1.45-17.87,17.36-5.63,13.63,2.05,19.36,10.94,26a58.59,58.59,0,0,1,8.76,7.45C90.73,280,132.8,278.22,159.12,270.91a4,4,0,1,1,2.13,7.66A97,97,0,0,1,135,282.36Z"/><path class="cls-2" d="M72.25,151.42,71.36,164a4.35,4.35,0,0,1-.72,2.08l-.11.16h0a10.15,10.15,0,0,0-.83,1c-.3.4-.58.82-.85,1.25a24.1,24.1,0,0,0-1.45,2.7,19.71,19.71,0,0,0-1.66,5.83,20.43,20.43,0,0,0-.13,3,18.3,18.3,0,0,0,.5,3,20.17,20.17,0,0,0,2.54,5.79l.1.18a2,2,0,0,1-3.26,2.23,24.58,24.58,0,0,1-4.09-6.62,23.67,23.67,0,0,1-1.2-3.83,24.69,24.69,0,0,1-.42-4,26.4,26.4,0,0,1,1.08-8,29.84,29.84,0,0,1,1.38-3.77c.27-.62.56-1.23.88-1.83a19.15,19.15,0,0,1,1.13-1.9h0l-.83,2.24.92-13a4,4,0,1,1,7.92.56Z"/><path class="cls-2" d="M98.9,274a3.15,3.15,0,0,1-2.19-5.43c21.37-20.5,24.64-70,24.67-70.5a3.15,3.15,0,0,1,6.29.39c-.13,2.13-3.44,52.45-26.59,74.66A3.13,3.13,0,0,1,98.9,274Z"/><path class="cls-1" d="M374.82,377.6c-1.7,37.56-13.18,52.8-27.36,57.61a27.82,27.82,0,0,1-9.48,1.48,40.52,40.52,0,0,1-17.32-4.58,17.11,17.11,0,0,1-7.08,1.22c-26.23-2.54-20.24-18.1-14.92-43a174.81,174.81,0,0,0,3.65-23.76c3-40.79-8.38-79.35-8.38-79.35l4.39-36.6,4.89-40.78s2.57,2.32,6.73,6.74c3.65,3.87,8.51,9.32,13.95,16.23C346.07,260.9,377.76,312.89,374.82,377.6Z"/><path class="cls-2" d="M338.68,440.68l-.84,0a45.61,45.61,0,0,1-17.48-4.24,19.52,19.52,0,0,1-7.17.87c-9.89-1-16.17-3.72-19.77-8.68-5.63-7.77-3.15-18.9,0-33,1.93-8.66,4.12-18.46,4.93-29.38,2.94-39.54-8.11-77.55-8.22-77.93a4,4,0,0,1,7.63-2.25c.47,1.6,11.57,39.74,8.52,80.77-.86,11.49-3.11,21.6-5.1,30.52-2.7,12.14-4.84,21.73-1.32,26.59,2.14,2.94,6.75,4.72,14.11,5.43a13,13,0,0,0,5.18-.93l1.82-.74,1.7,1a37.1,37.1,0,0,0,15.45,4,23.67,23.67,0,0,0,8.07-1.27c15-5.09,23.28-23.26,24.68-54,2.26-49.87-16.92-91.93-33.4-118.42-18-28.87-36.73-46.08-36.92-46.25a4,4,0,0,1,5.34-5.89c.8.72,19.65,18,38.19,47.72,17.14,27.5,37.08,71.19,34.73,123.2-1.58,34.85-11.42,54.87-30.07,61.19A32.24,32.24,0,0,1,338.68,440.68Z"/><path class="cls-2" d="M301.56,331.71a3.15,3.15,0,0,1-1.08-6.12c2.16-.78,53-19,71.54-2.34a3.15,3.15,0,0,1-4.22,4.69c-13-11.72-51.46-1.39-65.17,3.58A3.14,3.14,0,0,1,301.56,331.71Z"/><path class="cls-1" d="M330.39,390.3H145.52c-.48-15-.37-29.43.2-43.23.53-12.78,1.45-25,2.66-36.63,1.11-10.62,2.46-20.73,4-30.29.2-1.26.44-2.49.69-3.69,3.75-16.94,13.82-28.68,20.73-40,1.17-1.92,2.26-3.83,3.2-5.76a40.36,40.36,0,0,0,2.65-6.75q.09-.3.15-.6c.48-2.48-.22-5.53-1.35-8.72-2.48-7-7-14.7-5.77-18.51,2.12-6.27,4-11.19,5.34-14.67,1.56-4,2.5-6,2.5-6H295.42s1,2,2.56,6,4,10.19,6.68,18.21c1.66,5,3.45,10.62,5.28,17,1.34,4.65,2.71,9.67,4.07,15q1,3.82,1.92,7.89c3,12.65,5.87,27,8.28,42.92,1.36,8.92,2.56,18.32,3.54,28.2,1.19,11.66,2.06,24,2.55,36.87C330.81,361.1,330.88,375.4,330.39,390.3Z"/><path class="cls-2" d="M160.82,248.11a89.17,89.17,0,0,1-.16,9.13c-.13,3-.45,6-.71,8.93s-.72,5.88-1.12,8.82-1.06,5.81-1.58,8.73l-.79,4.37c-.23,1.46-.43,2.93-.63,4.4-.41,2.94-.79,5.88-1.11,8.83s-.68,5.89-1,8.85-.59,5.9-.84,8.87c-1.08,11.83-1.4,23.73-1.83,35.63-.27,5.94-.53,11.89-1,17.83s-.67,11.9-4,17.81a.68.68,0,0,1-.94.27.71.71,0,0,1-.28-.29c-3.06-6-3.13-12-3.1-18s.09-12,.37-18c.65-12,1.8-23.94,2.8-35.92.25-3,.53-6,.85-9s.62-6,1-9,.71-6,1.13-9l1.13-9q.49-4.5,1.33-9c.55-3,1.34-5.89,2.18-8.8a80.19,80.19,0,0,1,7-16.9.64.64,0,0,1,.87-.23.62.62,0,0,1,.31.51Z"/><path class="cls-2" d="M329.78,390.31c-3.28-5.33-3.6-10.71-3.88-16.09s-.6-10.74-.8-16.1c-.33-10.72-.59-21.43-1.73-32.07-.53-5.32-1.18-10.62-1.91-15.92s-1.48-10.6-2.63-15.84c-.53-2.63-1.1-5.25-1.55-7.89s-.73-5.31-1-8-.38-5.4-.46-8.13a62.87,62.87,0,0,1,.25-8.31v0a.63.63,0,0,1,.7-.56.65.65,0,0,1,.49.32A77.28,77.28,0,0,1,323.64,277,86.91,86.91,0,0,1,327,292.89c.69,5.4,1.62,10.75,2.34,16.15s1.41,10.79,1.95,16.21c1.07,10.83,2.17,21.67,2.71,32.51.22,5.43.33,10.84.21,16.26s-.13,10.82-3.21,16.27a.71.71,0,0,1-1,.27A.67.67,0,0,1,329.78,390.31Z"/><g class="cls-5"><path class="cls-2" d="M330.3,356.18c-11.34,1.11-25.5,1.51-36.48-1.37v6.09a15.41,15.41,0,0,1-15.36,15.35h-83.8a15.39,15.39,0,0,1-15.34-15.35V356c-10.95,1.66-23.7.94-33.6-.17.52-10.19,1.45-19.93,2.67-29.19a255.46,255.46,0,0,0,30.93-.33V315.41a15.37,15.37,0,0,1,15.34-15.34h83.8a15.4,15.4,0,0,1,15.36,15.34v10.25c10.19,1.48,23.38,1.48,33.94,1.13C328.94,336.09,329.81,345.9,330.3,356.18Z"/></g><path class="cls-1" d="M195.53,340.11c-11.52,4.67-29.35,3.69-41.51,2.22a13,13,0,0,1-11.33-14.88h0a13,13,0,0,1,13.51-11.13c11.37.53,28.42.78,39.23-1.62"/><g class="cls-5"><path class="cls-2" d="M195.54,340.11c-11.53,4.67-29.36,3.69-41.52,2.22a13,13,0,0,1-11.33-14.87,12.82,12.82,0,0,1,1.34-4.14,13,13,0,0,0,10,6.9c12.14,1.47,29.94,2.45,41.46-2.19Z"/></g><path class="cls-2" d="M172.61,347.52a161.17,161.17,0,0,1-19.06-1.24,17,17,0,0,1,2.83-33.93c16.67.78,30.23.24,38.18-1.53,1.45-.32,6.39-.7,9.05,7.85,2.5,8.05,2.14,21.59-6.59,25.13h0C190.14,346.58,181.34,347.52,172.61,347.52Zm22.92-7.41h0Zm-39.95-19.83a9.08,9.08,0,0,0-7.19,14.6,8.9,8.9,0,0,0,6.11,3.5c17.23,2.09,31.28,1.4,39.54-1.95,1.76-.71,2.46-3.66,2.68-4.89.89-5-.41-10.75-1.59-12.71-11,2.19-27.26,2-39.12,1.46Z"/><path class="cls-1" d="M283.66,340.11c11.52,4.67,29.35,3.69,41.51,2.22a13,13,0,0,0,11.33-14.88h0A13,13,0,0,0,323,316.32c-11.37.53-28.42.78-39.22-1.62"/><g class="cls-5"><path class="cls-2" d="M325.17,342.33c-12.16,1.47-30,2.45-41.51-2.22l0-12.2c11.52,4.65,29.32,3.67,41.46,2.2a13,13,0,0,0,10-6.86,12.88,12.88,0,0,1,1.38,4.21A13.06,13.06,0,0,1,325.17,342.33Z"/></g><path class="cls-2" d="M306.58,347.52c-8.72,0-17.53-.94-24.41-3.72h0c-8.73-3.54-9.09-17.08-6.59-25.13,2.66-8.55,7.6-8.17,9.05-7.85,7.95,1.77,21.51,2.31,38.18,1.53a17,17,0,0,1,2.84,33.93A163.5,163.5,0,0,1,306.58,347.52Zm-21.43-11.09c8.27,3.34,22.31,4,39.54,1.95A9.07,9.07,0,0,0,332.57,328a9,9,0,0,0-9.39-7.75c-11.86.55-28.07.73-39.12-1.46-1.18,2-2.48,7.71-1.59,12.71.22,1.23.93,4.18,2.68,4.89Z"/><path class="cls-1" d="M288.11,306.31V347a13.77,13.77,0,0,1-13.74,13.73h-75A13.78,13.78,0,0,1,185.65,347V306.31a13.77,13.77,0,0,1,13.73-13.73h75a13.76,13.76,0,0,1,13.74,13.73Z"/><g class="cls-5"><path class="cls-2" d="M288.11,306.31V347a13.77,13.77,0,0,1-13.73,13.73h-75A13.77,13.77,0,0,1,185.65,347V331.8c11.26,11.48,33.41,18.69,53.73,18.8A12.36,12.36,0,0,0,251.64,339c0-.07,0-.13,0-.2a11.85,11.85,0,0,1,23.58-.16c9.83-12.13,7-33.23,10.08-40.58A13.63,13.63,0,0,1,288.11,306.31Z"/></g><path class="cls-2" d="M274.38,364.74h-75A17.73,17.73,0,0,1,181.68,347V306.31a17.72,17.72,0,0,1,17.71-17.71h75a17.73,17.73,0,0,1,17.71,17.71V347A17.74,17.74,0,0,1,274.38,364.74Zm-75-68.19a9.77,9.77,0,0,0-9.76,9.76V347a9.77,9.77,0,0,0,9.76,9.76h75a9.77,9.77,0,0,0,9.76-9.76V306.31a9.77,9.77,0,0,0-9.76-9.76Z"/><circle class="cls-6" cx="263.45" cy="326.67" r="11.84"/><g class="cls-7"><path class="cls-1" d="M275.29,326.67a12.19,12.19,0,0,1-.23,2.36,11.85,11.85,0,0,0-23.22,0,11.45,11.45,0,0,1-.24-2.36,11.85,11.85,0,0,1,23.69,0Z"/></g><g class="cls-5"><path class="cls-2" d="M275.29,326.67a11.84,11.84,0,0,1-23.68,0,11.53,11.53,0,0,1,.81-4.29,11.83,11.83,0,0,0,22.06,0A11.73,11.73,0,0,1,275.29,326.67Z"/></g><path class="cls-2" d="M263.45,341.49a14.82,14.82,0,1,1,14.82-14.82A14.84,14.84,0,0,1,263.45,341.49Zm0-23.68a8.86,8.86,0,1,0,8.86,8.86A8.86,8.86,0,0,0,263.45,317.81Z"/><path class="cls-2" d="M229.89,363.74a3,3,0,0,1-3-3V339.13a11.93,11.93,0,0,0-4.73-9.48L219,327.27A17.91,17.91,0,0,1,211.91,313V292.57a3,3,0,1,1,6,0V313a11.93,11.93,0,0,0,4.73,9.48l3.17,2.38a17.9,17.9,0,0,1,7.1,14.24v21.63A3,3,0,0,1,229.89,363.74Z"/><g class="cls-5"><path class="cls-2" d="M327.77,236.69a110.86,110.86,0,0,1-8.5,7.15,121.49,121.49,0,0,1-151-2.56c-.28-.22-.56-.45-.82-.68a121.88,121.88,0,0,1-24.85-28.47,112.71,112.71,0,0,0,29.82,5.15c-2.66-7.48-7.54-15.71-6.17-19.77,2.27-6.7,4.24-12,5.71-15.68,1.67-4.25,2.66-6.46,2.66-6.46H297.36s1,2.18,2.73,6.4,4.27,10.89,7.14,19.45c1.77,5.29,3.68,11.35,5.64,18.14C316.76,223.49,322,229.31,327.77,236.69Z"/></g><path class="cls-1" d="M361.4,182.6h0a2.53,2.53,0,0,1-2.14-2.84l10.09-71.65a2.51,2.51,0,0,1,2.84-2.14h0a26.35,26.35,0,0,1,22.42,29.77l-3.44,24.43A26.35,26.35,0,0,1,361.4,182.6Z"/><path class="cls-2" d="M365.09,183.63a27.3,27.3,0,0,1-3.8-.27,3.28,3.28,0,0,1-2.79-3.71L368.59,108a3.28,3.28,0,0,1,3.71-2.8,27.12,27.12,0,0,1,23.08,30.65l-3.44,24.43A27.17,27.17,0,0,1,365.09,183.63Zm6.75-76.91a1.69,1.69,0,0,0-1,.35,1.67,1.67,0,0,0-.68,1.14L360,179.87a1.76,1.76,0,0,0,.33,1.29,1.71,1.71,0,0,0,1.15.67,25.62,25.62,0,0,0,28.9-21.76l3.44-24.44a25.6,25.6,0,0,0-21.77-28.89A1,1,0,0,0,371.84,106.72Z"/><g class="cls-5"><path class="cls-2" d="M392.79,148.72l-1.61,11.46A26.36,26.36,0,0,1,361.4,182.6a2.51,2.51,0,0,1-2.14-2.84l2.68-19A2.51,2.51,0,0,0,364,162.5l1.7.24A26.34,26.34,0,0,0,392.79,148.72Z"/></g><path class="cls-2" d="M365.1,187.17a31.3,31.3,0,0,1-4.3-.3,6.82,6.82,0,0,1-4.5-2.66,6.72,6.72,0,0,1-1.3-5.05l10.09-71.66a6.83,6.83,0,0,1,7.7-5.8,30.67,30.67,0,0,1,26.09,34.64l-3.44,24.44A30.71,30.71,0,0,1,365.1,187.17Zm-1.31-8.66a22.09,22.09,0,0,0,23.12-18.94l3.44-24.43a22.08,22.08,0,0,0-17-24.58Z"/><path class="cls-1" d="M135.68,72.66h0a2.51,2.51,0,0,1,2.13,2.84l-10.08,71.66a2.51,2.51,0,0,1-2.84,2.13h0a26.35,26.35,0,0,1-22.43-29.77l3.45-24.43A26.34,26.34,0,0,1,135.68,72.66Z"/><path class="cls-2" d="M125.24,150.09a3.55,3.55,0,0,1-.46,0,27.12,27.12,0,0,1-23.08-30.65L105.14,95A27.12,27.12,0,0,1,135.79,71.9h0a3.29,3.29,0,0,1,2.79,3.71l-10.09,71.65A3.29,3.29,0,0,1,125.24,150.09ZM132,73.18a25.59,25.59,0,0,0-25.28,22l-3.44,24.44A25.58,25.58,0,0,0,125,148.53a1.74,1.74,0,0,0,2-1.48l10.09-71.66a1.74,1.74,0,0,0-1.48-2h0A26,26,0,0,0,132,73.18Z"/><g class="cls-5"><path class="cls-2" d="M130.53,127.28l-2.8,19.88a2.51,2.51,0,0,1-2.84,2.13,26.33,26.33,0,0,1-22.42-29.76l1.45-10.3a26.36,26.36,0,0,0,21.61,18.68l2.62.36A2.53,2.53,0,0,0,130.53,127.28Z"/></g><path class="cls-2" d="M125.24,153.63a6.16,6.16,0,0,1-.95-.07A30.67,30.67,0,0,1,98.2,118.92l3.44-24.43A30.65,30.65,0,0,1,136.28,68.4h0a6.81,6.81,0,0,1,5.8,7.7L132,147.76A6.83,6.83,0,0,1,125.24,153.63ZM132,76.71a22.06,22.06,0,0,0-21.79,19l-3.44,24.43a22,22,0,0,0,17,24.58l9.57-67.95C132.84,76.73,132.4,76.71,132,76.71Zm3.12.22Z"/><circle class="cls-1" cx="248.55" cy="127.63" r="123.31"/><path class="cls-2" d="M248.58,251.73a124.09,124.09,0,1,1,121.31-98.12h0A124.31,124.31,0,0,1,248.58,251.73ZM248.53,5.08A122.6,122.6,0,1,0,274.2,7.81,122.75,122.75,0,0,0,248.53,5.08Z"/><g class="cls-5"><path class="cls-2" d="M371.55,136.51a121.65,121.65,0,0,1-2.42,16.94A123.31,123.31,0,0,1,128,101.82c.41-1.91.87-3.82,1.36-5.69a123.32,123.32,0,0,0,242.22,40.38Z"/></g><path class="cls-2" d="M248.58,255.27A127.63,127.63,0,1,1,373.35,154.35h0A127.86,127.86,0,0,1,248.58,255.27ZM248.53,8.62a119.06,119.06,0,1,0,24.93,2.65A119.2,119.2,0,0,0,248.53,8.62Zm120.6,144.82h0Z"/><path class="cls-2" d="M368.08,156.46a110.51,110.51,0,0,1-33.48,59.69c-12.55,11.68-57.78,27.5-107.87,18-46.45-8.78-83.74-41.87-90.88-57.45a110.61,110.61,0,0,1-8.17-68C140.1,46.15,199.06,30.85,265.45,44S380.5,93.82,368.08,156.46Z"/><g class="cls-8"><ellipse class="cls-1" cx="330.7" cy="140.2" rx="21.82" ry="15.81" transform="translate(79.11 396.56) rotate(-68.51)"/></g><g class="cls-8"><ellipse class="cls-1" cx="303.29" cy="178.84" rx="10.02" ry="8.6" transform="translate(-1.49 355.12) rotate(-60.57)"/></g><g class="cls-5"><path class="cls-9" d="M356.29,93.39c11.92,16.94,16.78,37.91,11.79,63.06a110.62,110.62,0,0,1-33.47,59.7c-12.56,11.68-57.79,27.5-107.89,18a152.13,152.13,0,0,1-47.91-18.3c61.82,10.32,117-9.17,132.53-23.66a140.28,140.28,0,0,0,42.49-75.76A123.91,123.91,0,0,0,356.29,93.39Z"/></g><path class="cls-2" d="M368.64,103.31a3.83,3.83,0,0,1-2.95-1.38l-.33-.39-.23-.5c-14.62-32.4-50.55-56.45-98.6-66-48.31-9.58-90.77-.53-116.5,24.82l-.29.27a3.83,3.83,0,0,1-5-5.8C172.3,27.24,217.23,17.47,268,27.54c50.42,10,88.31,35.57,104,70.16a3.82,3.82,0,0,1-1,4.79A3.75,3.75,0,0,1,368.64,103.31Z"/><g class="cls-8"><path class="cls-1" d="M147.28,151.4s-7.14-65.64,31-83.66,86.08-8.42,84.35-5.57c0,0-55.59,2.33-84.66,40.14C155.6,131.47,147.28,151.4,147.28,151.4Z"/></g><circle class="cls-2" cx="338.24" cy="527.36" r="3.05"/><g class="cls-3"><path class="cls-2" d="M271,387.63s42.43-14.8,77.53,20.87c32.26,32.78-5.45,65.13-5.45,65.13s11.62,44.67-18.55,50.4c-25.6,4.86-48.73-19.88-45.77-50.5,2.43-25.17,8-22.83,5.92-36.63-2.31-15.64-35.63-19.16-35.63-19.16H236.53s-33.32,3.52-35.62,19.16c-2,13.8,3.49,11.46,5.92,36.63,3,30.62-20.18,55.36-45.78,50.5-30.17-5.73-18.55-50.4-18.55-50.4s-37.7-32.35-5.45-65.13c35.11-35.67,77.53-20.87,77.53-20.87Z"/></g><path class="cls-1" d="M277,374.7s51.41-30,93.94,13.26c39.08,39.72-6.6,78.91-6.6,78.91s14.08,54.13-22.48,61.07c-31,5.89-59.05-24.09-55.47-61.19,2.95-30.5,9.65-27.66,7.18-44.39-2.8-18.94-43.17-23.21-43.17-23.21H235.21s-40.38,4.27-43.17,23.21c-2.47,16.73,4.23,13.89,7.17,44.39,3.59,37.1-24.45,67.08-55.47,61.19-36.55-6.94-22.47-61.07-22.47-61.07s-45.69-39.19-6.6-78.91c42.53-43.23,93.93-13.26,93.93-13.26"/><g class="cls-5"><path class="cls-2" d="M361.6,515.89c-3.77,5.65-9.93,10.2-19.73,12.05-31,5.9-59.06-24.09-55.48-61.19,2.95-30.5,9.64-27.66,7.18-44.38-2.8-18.95-43.18-23.21-43.18-23.21H235.2s-40.37,4.26-43.16,23.21c-2.48,16.72,4.23,13.88,7.17,44.38,3.59,37.1-24.45,67.09-55.47,61.19-9.8-1.85-16-6.4-19.73-12.05l.81.15c37,6.38,70.34-25.27,66.07-65.44-3.52-33-11.49-30-8.55-48.08,3.33-20.51,51.42-25.13,51.42-25.13h18.09s48.09,4.62,51.41,25.13c2.94,18.12-5,15-8.55,48.08-4.26,40.17,29.13,71.82,66.08,65.44Z"/></g><path class="cls-2" d="M276.33,373.55a73.75,73.75,0,0,1,22.51-10.09,81.71,81.71,0,0,1,12.27-2.32,82.73,82.73,0,0,1,12.6-.26,73.14,73.14,0,0,1,24.58,5.95,83.13,83.13,0,0,1,21.11,13.82,71.27,71.27,0,0,1,15.87,19.82,52.65,52.65,0,0,1,4.46,12.27,46.72,46.72,0,0,1,.85,13.08,57.61,57.61,0,0,1-7.83,24.35,81.88,81.88,0,0,1-7.12,10.42c-1.32,1.63-2.67,3.23-4.11,4.77-.72.77-1.45,1.53-2.2,2.27s-1.48,1.45-2.39,2.26l1.25-4c.73,3,1.22,5.71,1.66,8.58s.73,5.7.92,8.58a81.24,81.24,0,0,1-.6,17.46,56.62,56.62,0,0,1-2.09,8.74,41.84,41.84,0,0,1-3.92,8.37,30.71,30.71,0,0,1-14.33,12.11,40.74,40.74,0,0,1-8.94,2.41c-1.49.27-3,.34-4.52.48s-3,.1-4.56,0a43.22,43.22,0,0,1-9-1.36,45.38,45.38,0,0,1-8.52-3.09c-11-5.21-19.57-14.32-25-24.82a66.44,66.44,0,0,1-7.06-34.24c.17-3,.54-5.71.86-8.55l.6-4.23.75-4.23c.58-2.82,1.21-5.65,2-8.43s1.79-5.51,2.53-7.95a22.35,22.35,0,0,0,1.09-7c0-.59,0-1.22-.07-1.84s-.06-1.24-.16-1.88l-.24-1.92c-.12-.51-.18-1-.33-1.46-1.13-3.81-4.78-7.17-9.16-9.62a64.5,64.5,0,0,0-14.52-5.72,109.64,109.64,0,0,0-15.65-3.1l.42,0H235.21l.42,0a109.5,109.5,0,0,0-15.66,3.1,64.23,64.23,0,0,0-14.51,5.72c-4.38,2.45-8,5.81-9.17,9.62-.14.48-.21.95-.33,1.46l-.23,1.92c-.1.64-.13,1.26-.17,1.88s-.09,1.25-.07,1.84a22.35,22.35,0,0,0,1.09,7c.75,2.44,1.74,5.18,2.53,7.95s1.46,5.61,2,8.43l.74,4.23.61,4.23c.32,2.84.69,5.57.85,8.55a66.24,66.24,0,0,1-7.06,34.24c-5.42,10.5-14,19.61-25,24.82a45.89,45.89,0,0,1-8.52,3.09,43.41,43.41,0,0,1-9,1.36c-1.51.12-3,0-4.55,0s-3-.21-4.52-.48a40.44,40.44,0,0,1-8.94-2.41,33.06,33.06,0,0,1-8.13-4.94,33.89,33.89,0,0,1-6.21-7.17,43,43,0,0,1-3.92-8.37,55.45,55.45,0,0,1-2.08-8.74,80,80,0,0,1-.6-17.46q.29-4.32.92-8.58c.43-2.87.92-5.61,1.65-8.58l1.26,4c-.92-.81-1.63-1.5-2.4-2.26s-1.48-1.5-2.2-2.27c-1.43-1.54-2.79-3.14-4.11-4.77a84,84,0,0,1-7.12-10.42A57.5,57.5,0,0,1,95,425.81a47,47,0,0,1,.9-13.06,52.28,52.28,0,0,1,4.5-12.23,70.91,70.91,0,0,1,16-19.66,83.16,83.16,0,0,1,21-13.85,70.88,70.88,0,0,1,24.48-6.42,79.7,79.7,0,0,1,12.65.16A82.45,82.45,0,0,1,186.86,363a78.25,78.25,0,0,1,11.71,4.25,56.41,56.41,0,0,1,10.7,6.31,1.33,1.33,0,0,1-1.25,2.32l-.08,0a137.86,137.86,0,0,0-22.61-5.76c-3.8-.63-7.61-1-11.41-1.22-1.9,0-3.8-.14-5.69-.05-.95,0-1.9,0-2.84.07l-2.82.2a70.13,70.13,0,0,0-21.85,5.39,64.88,64.88,0,0,0-10,5.38,69.79,69.79,0,0,0-9.06,6.95,62.77,62.77,0,0,0-14.2,17.4,44,44,0,0,0-3.78,10.24,38.82,38.82,0,0,0-.74,10.81,49.5,49.5,0,0,0,6.8,21,74.85,74.85,0,0,0,6.41,9.39c1.2,1.48,2.44,2.94,3.74,4.32.64.7,1.3,1.39,2,2.05s1.39,1.35,2,1.86l1.85,1.62-.59,2.4c-.59,2.41-1.09,5.14-1.48,7.75s-.68,5.29-.85,7.94a72.73,72.73,0,0,0,.52,15.71,47.76,47.76,0,0,0,1.77,7.42,34.93,34.93,0,0,0,3.1,6.66,25.94,25.94,0,0,0,4.63,5.36,25.16,25.16,0,0,0,6,3.66,32.55,32.55,0,0,0,7.07,1.89c1.24.23,2.5.27,3.75.4s2.5.09,3.75,0a35,35,0,0,0,7.41-1.12,37.58,37.58,0,0,0,7.09-2.57c9.14-4.34,16.61-12.13,21.33-21.29a58.33,58.33,0,0,0,6.18-30.13c-.13-2.55-.5-5.32-.8-8l-.57-4-.7-4c-.54-2.61-1.11-5.2-1.87-7.73s-1.64-5-2.51-7.9a30.13,30.13,0,0,1-1.42-9.33,22,22,0,0,1,.08-2.31c.05-.76.09-1.53.19-2.25l.27-2.21c.17-.84.33-1.75.59-2.59a21,21,0,0,1,5.34-8.65,34.22,34.22,0,0,1,7.49-5.59,72.34,72.34,0,0,1,16.34-6.48,119.16,119.16,0,0,1,16.94-3.35l.18,0h15.66l.18,0a119.16,119.16,0,0,1,16.94,3.35A72.16,72.16,0,0,1,284.09,405a34.51,34.51,0,0,1,7.5,5.59,21.19,21.19,0,0,1,5.34,8.65c.25.84.41,1.75.58,2.59l.27,2.21c.11.72.15,1.49.2,2.25s.1,1.52.08,2.31a30.74,30.74,0,0,1-1.42,9.33c-.88,2.86-1.79,5.34-2.51,7.9s-1.34,5.12-1.88,7.73l-.7,4-.57,4c-.3,2.67-.67,5.44-.8,8a58.43,58.43,0,0,0,6.18,30.13c4.73,9.16,12.19,16.95,21.34,21.29a37.48,37.48,0,0,0,7.08,2.57,35.12,35.12,0,0,0,7.41,1.12c1.25.11,2.51,0,3.76,0s2.5-.17,3.74-.4a32.79,32.79,0,0,0,7.08-1.89,25.1,25.1,0,0,0,6-3.66,25.64,25.64,0,0,0,4.63-5.36,34.36,34.36,0,0,0,3.11-6.66,47.74,47.74,0,0,0,1.76-7.42,73.37,73.37,0,0,0,.53-15.71c-.18-2.65-.47-5.31-.86-7.94s-.89-5.34-1.48-7.75l-.59-2.4,1.85-1.62c.59-.51,1.32-1.21,2-1.86s1.33-1.35,2-2.05c1.3-1.38,2.53-2.84,3.73-4.32a76,76,0,0,0,6.42-9.39,49.33,49.33,0,0,0,6.78-21,39.12,39.12,0,0,0-.78-10.8,44.1,44.1,0,0,0-3.82-10.2A63.51,63.51,0,0,0,363.75,387a77,77,0,0,0-18.93-12.38,69.83,69.83,0,0,0-21.76-5.79,87.06,87.06,0,0,0-22.88.81,109.17,109.17,0,0,0-22.51,6.21l-.09,0a1.33,1.33,0,0,1-1.25-2.33Z"/><path class="cls-2" d="M365.85,470.56l-2.74.87c-1,.29-2,.55-3.05.75a36.53,36.53,0,0,1-6.12.69,48.87,48.87,0,0,1-11.84-1.15,69.89,69.89,0,0,1-11-3.58c-1.77-.7-3.46-1.6-5.18-2.38s-3.33-1.8-5-2.69c1.79.59,3.56,1.21,5.35,1.77s3.59,1,5.42,1.41a67.08,67.08,0,0,0,10.91,1.53,43.87,43.87,0,0,0,10.62-.83,29.62,29.62,0,0,0,4.91-1.46c.79-.3,1.54-.65,2.29-1l2.47-1.3a4,4,0,0,1,3.72,7.08,5.59,5.59,0,0,1-.63.26Z"/><path class="cls-2" d="M123.09,463.17l2.46,1.3c.75.37,1.51.72,2.3,1a29.34,29.34,0,0,0,4.91,1.46,43.82,43.82,0,0,0,10.61.83,67.35,67.35,0,0,0,10.92-1.53c1.82-.37,3.6-.95,5.42-1.41s3.55-1.18,5.35-1.77c-1.66.89-3.31,1.82-5,2.69s-3.41,1.68-5.18,2.38a69.56,69.56,0,0,1-11,3.58,48.82,48.82,0,0,1-11.84,1.15,36.65,36.65,0,0,1-6.12-.69c-1-.2-2-.46-3-.75l-2.73-.87-.14,0a4,4,0,0,1,2.42-7.62A4.67,4.67,0,0,1,123.09,463.17Z"/><path class="cls-2" d="M385,437.93a3.38,3.38,0,0,1-.63-.07,3,3,0,0,1-2.29-3.54c1.37-6.41.37-11-3.06-13.9-14.22-12.2-65.34,3.39-83.84,10.43a3,3,0,0,1-2.12-5.58c7.15-2.71,70.38-26.08,89.84-9.37,5.17,4.43,6.86,11.05,5,19.67A3,3,0,0,1,385,437.93Z"/><path class="cls-2" d="M101.84,437.93a3,3,0,0,1-2.92-2.36c-1.84-8.62-.16-15.24,5-19.67,19.47-16.71,82.7,6.66,89.84,9.37a3,3,0,0,1-2.12,5.58c-18.5-7-69.62-22.63-83.84-10.43-3.43,2.94-4.43,7.49-3.06,13.9a3,3,0,0,1-2.29,3.54A3.37,3.37,0,0,1,101.84,437.93Z"/></g></g></svg>