<svg xmlns="http://www.w3.org/2000/svg" viewBox="0 0 417.89 739.28"><defs><style>.cls-1{fill:#fff;}.cls-2{opacity:0.2;}.cls-3{fill:#371a45;}.cls-4{fill:#d8d8d8;}.cls-5{fill:#e5e5e5;}.cls-6{opacity:0.35;}.cls-7{fill:#111a28;}.cls-8{opacity:0.5;}.cls-9{fill:#c1c1c1;}.cls-10{opacity:0.7;}.cls-11{opacity:0.3;}.cls-12{fill:#000070;}</style></defs><g id="Layer_2" data-name="Layer 2"><g id="Layer_1-2" data-name="Layer 1"><path class="cls-1" d="M383.59,483c-14.53,8.8-35.71,15-66.55,13.49H100.85c-30.84,1.52-52-4.69-66.54-13.49C11.85,469.45.74,442.85,5.92,417.1c16.38-81.43,94.93-107.34,94.93-107.34H317S395.58,335.67,412,417.1C417.14,442.85,406.05,469.45,383.59,483Z"/><g class="cls-2"><path class="cls-3" d="M383.59,483c-14.53,8.8-35.71,15-66.55,13.49h-3.56c6.49-9.94,28-19.85,44.58-25.4,29.56-9.85,38.89-52.89,19.2-78.82s-96.46-60.66-96.46-60.66l31-21.89H317S395.58,335.67,412,417.1C417.14,442.85,406.05,469.45,383.59,483Z"/></g><path class="cls-3" d="M57.1,419.91c-11,1.62-21.78,6.6-29.6,14.65,6-10.72,16-18.81,27.26-23.69,6.79-2.52,9.51,7.94,2.34,9Z"/><path class="cls-3" d="M366.13,410.87c11.23,4.88,21.29,13,27.26,23.69a50.62,50.62,0,0,0-21.77-12.9,47.53,47.53,0,0,0-7.83-1.75,4.73,4.73,0,1,1,2.34-9Z"/><path class="cls-3" d="M326.12,501.43q-4.56,0-9.31-.24a4.67,4.67,0,1,1,.46-9.32c26.24,1.29,47.73-3,63.9-12.82,20.53-12.43,31.06-37,26.22-61-14.84-73.78-83.61-100.83-91.15-103.59H101.65C94.13,317.18,25.34,344.23,10.5,418c-4.84,24.07,5.69,48.6,26.22,61,16.17,9.8,37.67,14.11,63.9,12.82a4.67,4.67,0,0,1,.46,9.32C73,502.58,49.67,497.81,31.88,487,8,472.57-4.27,444.1,1.35,416.18c16.72-83.12,97.23-110.58,98-110.85a4.84,4.84,0,0,1,1.46-.23H317a4.84,4.84,0,0,1,1.46.23c.81.27,81.32,27.73,98,110.85,5.62,27.92-6.65,56.39-30.53,70.86C370.22,496.6,350.11,501.43,326.12,501.43Z"/><path class="cls-1" d="M368.29,128.33s36.85,14,40.63,20.79c7,12.65,5.72,87-13.7,106.34-7.6,7.59-63.47,14.68-63.47,14.68Z"/><g class="cls-2"><path class="cls-3" d="M331.75,270.14s55.87-7.09,63.47-14.68,12.4-23.51,15-40.88c-.62.56-20.35,17.59-59.72-17l-.07-.06Z"/></g><path class="cls-1" d="M86.49,270.14S30.62,263.05,23,255.46,10.62,232,8,214.58H8C3.86,187.45,5,156.83,9.32,149.12,13.11,142.3,50,128.33,50,128.33l17.82,69.16Z"/><g class="cls-2"><path class="cls-3" d="M86.49,270.14S30.62,263.05,23,255.46,10.62,232,8,214.58c.62.56,20.35,17.59,59.71-17l.07-.06Z"/></g><path class="cls-3" d="M326.29,275l39.18-152.07,4.28,1.62c11.49,4.36,38.68,15.29,42.75,22.63,7.79,14,6.8,90.08-14.39,111.22-8.18,8.16-56.28,14.62-65.84,15.84Zm44.82-141.15L337.23,265.28c25.11-3.48,51.27-8.89,55.1-12.71,17.93-17.89,19.3-90.14,13-101.46C403.45,148,386.89,140.06,371.11,133.81Z"/><path class="cls-3" d="M92,275l-6-.76c-9.56-1.22-57.67-7.68-65.84-15.84C-1,237.22-2,161.16,5.75,147.14,9.82,139.8,37,128.87,48.5,124.51l4.27-1.62ZM47.14,133.81C31.36,140.06,14.8,148,12.89,151.12c-6.28,11.31-4.9,83.56,13,101.45,3.84,3.82,30,9.24,55.11,12.71Z"/><polygon class="cls-4" points="208.58 205.9 208.58 206.54 208.17 206.22 208.58 205.9"/><polygon class="cls-4" points="208.17 206.22 207.77 206.54 207.77 205.9 208.17 206.22"/><ellipse class="cls-1" cx="209.11" cy="174.91" rx="170.82" ry="170.81"/><path class="cls-5" d="M379.94,174.91A170.83,170.83,0,1,1,40.78,145.69a170.85,170.85,0,0,0,336.66,0A170.54,170.54,0,0,1,379.94,174.91Z"/><path class="cls-3" d="M209.11,349.08c-96,0-174.18-78.13-174.18-174.17S113.07.74,209.11.74,383.29,78.87,383.29,174.91,305.15,349.08,209.11,349.08Zm0-341.63c-92.34,0-167.47,75.12-167.47,167.46s75.13,167.46,167.47,167.46,167.47-75.12,167.47-167.46S301.45,7.45,209.11,7.45Z"/><path class="cls-3" d="M209.11,349.08c-96,0-174.18-78.13-174.18-174.17S113.07.74,209.11.74,383.29,78.87,383.29,174.91,305.15,349.08,209.11,349.08Zm0-341.63c-92.34,0-167.47,75.12-167.47,167.46s75.13,167.46,167.47,167.46,167.47-75.12,167.47-167.46S301.45,7.45,209.11,7.45Z"/><path class="cls-3" d="M209.11,349.08c-96,0-174.18-78.13-174.18-174.17S113.07.74,209.11.74,383.29,78.87,383.29,174.91,305.15,349.08,209.11,349.08Zm0-341.63c-92.34,0-167.47,75.12-167.47,167.46s75.13,167.46,167.47,167.46,167.47-75.12,167.47-167.46S301.45,7.45,209.11,7.45Z"/><path class="cls-3" d="M209.11,349.81A174.8,174.8,0,0,1,39.83,219.05l-.09-.29a174.91,174.91,0,1,1,338.75,0l-.09.28A174.82,174.82,0,0,1,209.11,349.81Zm-161.42-133a166.78,166.78,0,0,0,322.85,0c0-.11.06-.22.09-.33a166.75,166.75,0,1,0-327.2-60.2,164.39,164.39,0,0,0-1,18.67,166.76,166.76,0,0,0,5.21,41.52C47.63,216.54,47.66,216.66,47.69,216.77Z"/><path class="cls-3" d="M374,134.2a4.1,4.1,0,0,1-3.76-2.47C343.24,69.08,280,28.6,209.11,28.6S75,69.05,48,131.64a4.09,4.09,0,0,1-7.7-2.69,174.95,174.95,0,0,1,337.61.09,4.09,4.09,0,0,1-2.6,4.93A4,4,0,0,1,374,134.2ZM209.11,20.42c53.29,0,102.47,21.91,136.42,58.61A166.76,166.76,0,0,0,72.72,79C106.67,42.31,155.84,20.42,209.11,20.42Z"/><path class="cls-3" d="M379.92,174.91a171.26,171.26,0,0,1-5.4,42.83h0C344.87,275,281.93,324.26,209.1,324.26S73.35,275,43.71,217.75h0a170.35,170.35,0,0,1-5.42-42.83,167.82,167.82,0,0,1,1.08-19.12C62.4,92,129.68,45.9,209.1,45.9S355.83,92.06,378.86,155.84A171.65,171.65,0,0,1,379.92,174.91Z"/><g class="cls-6"><path class="cls-7" d="M379.93,174.92a171.19,171.19,0,0,1-5.4,42.82,0,0,0,0,0,0,0c-29.63,57.25-92.57,106.5-165.4,106.5S73.35,275,43.72,217.76c0,0,0,0,0,0a170.06,170.06,0,0,1-4.52-25.12c38.3,43,94,74.33,156,74.33,79,0,147.78-50.8,183.37-111.94.11.28.22.55.32.83A171.7,171.7,0,0,1,379.93,174.92Z"/></g><g class="cls-8"><path class="cls-1" d="M85.13,220.51c-11.82,0-22-46.92.63-85.9,30.61-52.7,109.46-54.16,111.32-46S140,118.3,114.56,159.88C95.81,190.56,96.94,220.51,85.13,220.51Z"/></g><g class="cls-8"><ellipse class="cls-1" cx="324.74" cy="188.73" rx="30.61" ry="23.02" transform="translate(72.36 466.91) rotate(-77.95)"/></g><g class="cls-8"><ellipse class="cls-1" cx="301.4" cy="241.41" rx="13.1" ry="11.4" transform="translate(-60.98 374.84) rotate(-58.91)"/></g><path class="cls-9" d="M383,356.3,363.42,479.68a20,20,0,0,1-19.73,16.85H77.91A20,20,0,0,1,66.58,493h0a19.93,19.93,0,0,1-8.4-13.32L38.63,356.3a21.31,21.31,0,0,1,21-24.65H361.92A21.33,21.33,0,0,1,383,356.3Z"/><g class="cls-10"><path class="cls-1" d="M70.57,494.27a5.93,5.93,0,0,0,.2,1,20,20,0,0,1-12.59-15.54L38.63,356.3a21.31,21.31,0,0,1,21-24.65H361.92a21.17,21.17,0,0,1,17.25,8.82h-316a14.46,14.46,0,0,0-14.29,16.72Z"/></g><path class="cls-3" d="M343.69,501.2H77.91a24.53,24.53,0,0,1-24.34-20.79L34,357a26,26,0,0,1,25.66-30H361.92a26,26,0,0,1,25.66,30L368,480.41l-4.61-.73,4.61.73A24.53,24.53,0,0,1,343.69,501.2Zm-284-164.88a16.63,16.63,0,0,0-16.44,19.25L62.79,479a15.23,15.23,0,0,0,15.12,12.9H343.69A15.23,15.23,0,0,0,358.81,479l19.55-123.39a16.63,16.63,0,0,0-16.44-19.25Z"/><ellipse class="cls-1" cx="210.8" cy="411.37" rx="22.06" ry="15.77"/><g class="cls-2"><path class="cls-3" d="M383,356.3,363.42,479.68a20,20,0,0,1-19.73,16.85H77.91A20,20,0,0,1,66.58,493h0C217,494,321.91,445.63,374.69,340.47l4.78.42A21.09,21.09,0,0,1,383,356.3Z"/></g><path class="cls-9" d="M361.69,509.5a13,13,0,0,1-13,13H72.87a13,13,0,0,1,0-25.93H348.73A13,13,0,0,1,361.69,509.5Z"/><g class="cls-2"><path class="cls-3" d="M361.69,509.5a13,13,0,0,1-13,13H147.16c5-2.31,11.75-3.3,20.6-2.6,62.45,4.9,78.86-17.59,82-23.33h99A13,13,0,0,1,361.69,509.5Z"/></g><path class="cls-3" d="M348.73,527.12H72.87a17.63,17.63,0,0,1,0-35.26H348.73a17.63,17.63,0,0,1,0,35.26ZM72.87,501.2a8.3,8.3,0,0,0,0,16.59H348.73a8.3,8.3,0,0,0,0-16.59Z"/><path class="cls-1" d="M385.21,706.72a36.71,36.71,0,0,1-33.65,27.82,76.28,76.28,0,0,1-22.27-2.48c-5.49-1.39-11.76-3.29-18.41-5.57-22.41-7.69-49-19.7-63.56-30.27l0,0c-6.69-4.87-10.83-9.43-10.81-13.13,0-10.35,4.49-62.55,6.69-87.79a.18.18,0,0,0,0,0c.72-8.29,1.2-13.66,1.2-13.66-20.69-5.3-41.92-5-63.64,0,0,0,7.86,87.75,7.9,101.5,0,7.46-16.86,18.48-37.58,28.39-18.43,8.8-39.91,16.76-55.24,20.61a76.28,76.28,0,0,1-22.27,2.48,36.71,36.71,0,0,1-33.65-27.82c-7.22-27.89,12.17-54.15,45.3-59.83L72,563.68c-3.69-46.64,36-67.2,77.37-43.56l.58.31c1.1.64,2.22,1.31,3.32,2H271.86A82.29,82.29,0,0,1,291.92,513h0c34.93-10.67,64.37,10.17,61.18,50.65l-13.22,83.21C373,652.57,392.43,678.83,385.21,706.72Z"/><path class="cls-3" d="M76.55,739.28c-1.09,0-2.18,0-3.25-.08a41.35,41.35,0,0,1-37.93-31.31,48.89,48.89,0,0,1,6.22-39.23c8.2-12.67,21.68-21.6,38.29-25.46L67.36,564.41c0-.12,0-.24,0-.37-1.82-23.1,6.43-41.95,22.65-51.7,17.76-10.67,41.84-8.62,64.63,5.45H270.51c22.79-14.07,46.87-16.13,64.63-5.45,16.22,9.75,24.47,28.6,22.65,51.7,0,.13,0,.25-.05.37L345.22,643.2c16.61,3.86,30.1,12.79,38.29,25.46a48.89,48.89,0,0,1,6.22,39.23A41.35,41.35,0,0,1,351.8,739.2a80.94,80.94,0,0,1-23.65-2.62c-23.25-5.83-96.42-33-96.35-53.54,0-12.25,6-80.31,7.57-97.88-17-3.76-35-3.73-53.63.08,1.57,17.69,7.52,85.57,7.56,97.8.06,20.51-73.1,47.71-96.35,53.54A84.29,84.29,0,0,1,76.55,739.28Zm.06-176.15,13.19,83A4.66,4.66,0,0,1,86,651.49c-16.08,2.76-29.06,10.66-36.55,22.24a39.65,39.65,0,0,0-5,31.82,32,32,0,0,0,29.35,24.33,72.09,72.09,0,0,0,20.92-2.35c16.22-4.07,39.41-12.88,57.7-21.92C178.31,692.79,184,685,184,683.07c-.05-13.39-7.81-100.21-7.89-101.09a4.66,4.66,0,0,1,3.59-5c22.89-5.33,45.05-5.32,65.86,0A4.66,4.66,0,0,1,249,582c-.08.88-7.85,87.7-7.89,101.09,0,1.92,5.66,9.72,31.59,22.54,18.29,9,41.48,17.85,57.7,21.92a72.09,72.09,0,0,0,20.92,2.35,32,32,0,0,0,29.35-24.33,39.65,39.65,0,0,0-5-31.82c-7.49-11.58-20.47-19.48-36.55-22.24a4.66,4.66,0,0,1-3.82-5.33l13.2-83c1.48-19.37-5.14-35-18.17-42.79-15-9-35.89-6.73-56,6a4.64,4.64,0,0,1-2.5.73H153.24a4.64,4.64,0,0,1-2.5-.73c-20.08-12.78-41-15-56-6C81.74,528.17,75.12,543.76,76.61,563.13Z"/><path class="cls-3" d="M70,722.72h-.24c-27.48-.22-34.67-16.93-35-17.64a4.67,4.67,0,0,1,8.61-3.6c.27.6,5.59,11.75,26.43,11.91h.19c23.07,0,88.08-31.06,91.16-32.54,1.31-.73,19.69-11.26,21-25.5a4.66,4.66,0,1,1,9.29.85c-1.79,19.71-24.95,32.38-25.93,32.91l-.18.09C162.54,690.58,95.7,722.72,70,722.72Z"/><path class="cls-3" d="M85.19,642.23l21.13,4.66-21.13,4.67c-7.68,1.14-7.68-10.47,0-9.33Z"/><path class="cls-3" d="M355.07,722.72c-25.66,0-92.51-32.14-95.35-33.52l-.19-.09c-1-.53-24.14-13.2-25.93-32.91a4.67,4.67,0,0,1,9.3-.85c1.29,14.23,19.63,24.75,21,25.5C267,682.34,332,713.39,355,713.39h.2c20.95-.17,26.21-11.44,26.43-11.92a4.66,4.66,0,0,1,8.6,3.61c-.29.71-7.48,17.42-35,17.64Z"/><path class="cls-3" d="M339.91,651.56l-21.13-4.67,21.13-4.66c7.68-1.14,7.68,10.47,0,9.33Z"/><polygon class="cls-3" points="157.01 519.71 163.74 536.84 149.47 525.21 157.01 519.71 157.01 519.71"/><polygon class="cls-3" points="276.21 525.21 261.94 536.84 268.67 519.71 276.21 525.21 276.21 525.21"/><path class="cls-3" d="M176.2,582.72l-1.7-25.53,10.75,23.22c2.71,7-8.09,9.71-9.05,2.31Z"/><path class="cls-3" d="M239.65,580.41l10.74-23.22-1.7,25.53c-.95,7.4-11.75,4.65-9-2.31Z"/><g class="cls-11"><path class="cls-12" d="M220.52,522.46,209,522.13Q214.27,522.06,220.52,522.46Z"/></g><g class="cls-2"><path class="cls-3" d="M243.17,594.34c.72-8.29,1.2-13.66,1.2-13.66-20.69-5.3-41.92-5-63.64,0,0,0,7.86,87.74,7.9,101.5,0,7.46-16.86,18.47-37.58,28.38-27.39,4.36-55.3-1.82-55.3-1.82l23.79-9.84c53.93-20.74,39.41-55,33.7-116.15s-36.29-70-36.29-70c14.33-2.77,29.33,4.81,32.39,6.49l.58.31,59.08,1.7c-2.8,0-5.42.14-7.84.32C161.57,524.7,170,548.4,170,548.4c19.05,17.5,82.83,3.12,82.83,3.12Z"/></g><g class="cls-2"><path class="cls-3" d="M385.21,706.72a36.71,36.71,0,0,1-33.65,27.82,76.28,76.28,0,0,1-22.27-2.48c-5.49-1.39-11.76-3.29-18.41-5.57,11.11-.19,21.49-4.86,29-17.38,27.49-45.62-27.81-64.29-27.81-64.29s2.92-13.48,6.69-72.59c3.67-58-25.73-59.17-26.84-59.2,34.93-10.67,64.37,10.17,61.18,50.65l-13.22,83.21C373,652.57,392.43,678.83,385.21,706.72Z"/></g><g class="cls-2"><path class="cls-3" d="M52.91,441.57S30.31,478.9,4.67,436.9c0,0,2.79,36.89,31.34,47.15s25.08,3.26,25.08,3.26L55.93,460"/></g></g></g></svg>