<svg xmlns="http://www.w3.org/2000/svg" viewBox="0 0 105.53 105.52"><defs><style>.cls-1{fill:#fff;}.cls-2{opacity:0.5;}.cls-3{fill:#371a45;}.cls-4{opacity:0.2;}.cls-5{fill:#ff0068;}</style></defs><g id="Layer_2" data-name="Layer 2"><g id="Layer_1-2" data-name="Layer 1"><path class="cls-1" d="M94.37,78.15a48.66,48.66,0,1,0-16.3,16.28l22.56,5.06Z"/><g class="cls-2"><path class="cls-1" d="M48.74,13.59A48.76,48.76,0,0,1,101.4,51.91a50.82,50.82,0,0,0-.25-5.2A48.75,48.75,0,1,0,5,61.84,48.75,48.75,0,0,1,48.74,13.59Z"/></g><path class="cls-3" d="M52.66,105.52a52.76,52.76,0,1,1,52.58-58.15,52.25,52.25,0,0,1-6.53,31.31l5.77,19.68a4,4,0,0,1-4.72,5l-21-4.71a52.38,52.38,0,0,1-20.59,6.55A53.4,53.4,0,0,1,52.66,105.52ZM52.8,8A44.74,44.74,0,1,0,76,91a4,4,0,0,1,3-.49l15.92,3.57L90.53,79.27A4,4,0,0,1,91,76.06a44.28,44.28,0,0,0,6.32-27.87A44.81,44.81,0,0,0,52.8,8Z"/><g class="cls-4"><path class="cls-3" d="M94.65,77.68A56.33,56.33,0,0,1,4.07,50.18a48.82,48.82,0,0,0,53.67,51.07,48.47,48.47,0,0,0,20.33-6.82l22.56,5.06L94.37,78.15C94.47,78,94.55,77.83,94.65,77.68Z"/></g><path class="cls-5" d="M68.35,39.07h0c-4.22-4.22-11.06-3.46-15.28.75l-.65.66-.66-.66c-4.22-4.21-11.06-5-15.28-.75h0a10.8,10.8,0,0,0,0,15.28l.66.65L50.4,68.27a2.85,2.85,0,0,0,4,0L67.69,55l.66-.65A10.8,10.8,0,0,0,68.35,39.07Z"/></g></g></svg>