<svg xmlns="http://www.w3.org/2000/svg" viewBox="0 0 638.57 435.1"><defs><style>.cls-1{fill:#ffb200;}.cls-2{fill:#d66b09;}.cls-3{fill:#371a45;}.cls-4{fill:#ffc536;}.cls-5{fill:#ff9100;}.cls-6{fill:#ffec90;}.cls-7{opacity:0.41;}.cls-8{fill:#fff;}.cls-9{opacity:0.3;}</style></defs><g id="Layer_2" data-name="Layer 2"><g id="Layer_2-2" data-name="Layer 2"><path class="cls-1" d="M508.42,144.33a212.76,212.76,0,0,1,7.58,25.4C479.49,195.1,408.54,229.16,324.5,260s-160.18,50.8-204.43,55.09a213.29,213.29,0,0,1-10.65-24.28c-.15-.39-.29-.78-.43-1.18q-2-5.56-3.69-11.17a213.37,213.37,0,0,1-6.12-26.34c-.06-.36-.12-.71-.17-1.07a212.55,212.55,0,0,1,390.5-145.61c.57.91,1.13,1.82,1.68,2.75a212.59,212.59,0,0,1,12.37,24c1.36,3.1,2.65,6.26,3.87,9.45C507.77,142.57,508.09,143.45,508.42,144.33Z"/><path class="cls-1" d="M518.63,252.21a209.91,209.91,0,0,1-5.83,25.36A212.72,212.72,0,0,1,171.43,379.69c52.95-9.28,114.57-26,178.81-49.57S472.26,279.39,518.63,252.21Z"/><path class="cls-2" d="M350.24,330.12c64.23-23.58,122-50.73,168.39-77.91a209.91,209.91,0,0,1-5.83,25.36c-35.78,22.2-92.29,48.72-157.59,72.69-62.54,23-120.45,38.94-161.81,45.71a212.83,212.83,0,0,1-22-16.28C224.38,370.41,286,353.71,350.24,330.12Z"/><path class="cls-2" d="M507.43,141.7c.34.87.66,1.75,1,2.63a212.76,212.76,0,0,1,7.58,25.4C479.49,195.1,408.54,229.16,324.5,260s-160.18,50.8-204.43,55.09a213.29,213.29,0,0,1-10.65-24.28c-.15-.39-.29-.78-.43-1.18,41.78-1.55,119.2-20.58,204.86-52C402.9,204.92,476.48,167.75,507.43,141.7Z"/><path class="cls-2" d="M95.52,219.05l1.78-14.21c28.78,3.6,106.09-14.89,188-45C383,124,447.14,87.42,460,69.84l11.58,8.44c-16.95,23.26-89.8,61.45-181.28,95C205.07,204.6,126.82,223,95.52,219.05Z"/><path class="cls-2" d="M111.36,147.73l-1.06-14.29C143.14,131,200.88,115.75,261,93.68,324,70.55,379,44,404.48,24.34l8.74,11.35c-26.58,20.47-83,47.84-147.28,71.43C204.66,129.62,145.43,145.18,111.36,147.73Z"/><path class="cls-2" d="M98.45,258.21l1.11-14.28c33.14,2.58,113.05-16.86,198.85-48.36,90-33,166.34-72,185.64-94.74L495,110.1C473.9,134.92,396.9,174.67,303.35,209,214.43,241.67,134,261,98.45,258.21Z"/><path class="cls-2" d="M224,416v-3.57l-1.44-3.29.69-.3H224c28.82,0,84.76-13.66,142.53-34.87,58.08-21.32,108.17-46.31,130.71-65.22l4.6,5.49c-23.13,19.4-74,44.87-132.84,66.46C309.63,402.5,254.06,416,224,416Z"/><path class="cls-3" d="M309.1,435.1a218.19,218.19,0,0,1-140.93-51.56l-8.22-7,10.61-1.86c54.55-9.56,116.08-26.62,177.94-49.34s119.81-49.52,167.58-77.52l9.29-5.45L523.61,253A217.46,217.46,0,0,1,309.1,435.1ZM183.21,382.67A207.53,207.53,0,0,0,511.58,262.1c-46.35,26.29-101.27,51.34-159.6,72.76S235.56,372.72,183.21,382.67Z"/><path class="cls-4" d="M632,131c10.73,29.22-35,75.26-113.36,121.17-46.37,27.18-104.16,54.33-168.39,77.91s-125.86,40.29-178.81,49.57C82,395.37,17.34,389.88,6.61,360.66c-9.75-26.55,27.09-66.93,92.57-108.52a213.37,213.37,0,0,0,6.12,26.34c-18.19,12.79-27.46,23.31-25,30s16.87,8.82,39.77,6.61c44.25-4.29,120.4-24.24,204.43-55.09s155-64.92,191.5-90.29c18.89-13.13,28.55-23.93,26-30.76s-16.34-8.74-38.48-6.72a212.59,212.59,0,0,0-12.37-24C568,97.54,622.24,104.5,632,131Z"/><path class="cls-5" d="M99.43,264.22l1.63,2.4c-16.3,10.75-29,20.5-38.66,29.2Q73.52,281.83,99.43,264.22Z"/><path class="cls-5" d="M102.69,269l-1.63-2.38c.28-.2.59-.4.91-.59Z"/><path class="cls-6" d="M569.75,132.26c-2.7-7.31-10-12.16-22.1-14.57-11.72-2.32-27.94-2.35-48.84-.11l.31,2.87.92,8.67c39.88-4.27,56.52.89,58.83,7.14,3.83,10.47-24,38.52-94.2,75.33-39.24,20.57-86.33,41.12-136.14,59.42-29.3,10.76-58.4,20.32-86.19,28.3-19.45,5.64-38.26,10.49-56,14.49-77.35,17.38-116.71,14-120.56,3.52-2.26-6.13,6.74-20.44,38.53-42.38.55-.39,1.11-.77,1.68-1.15L102.69,269l-1.63-2.38-1.63-2.4c-17.29,11.77-29.62,22.26-37,31.6-7.78,9.71-10.23,18.15-7.54,25.5,2.63,7.15,9.77,11.59,20,14,26.53,6.33,73.61-1.14,114-10.23,18.29-4.1,37.63-9.12,57.63-14.91,27.78-8,56.82-17.59,86.06-28.32,50.28-18.46,97.83-39.22,137.55-60C520.77,195.27,579.25,158.13,569.75,132.26Z"/><path class="cls-6" d="M605.1,129.48c-10-27.1-65.71-25.91-110.71-20.12l1.48,11.5,3.25-.41c19.46-2.37,35.5-3.15,48.53-2.76,29.62.9,43.63,7.83,46.57,15.8,5.27,14.38-18.59,47.92-103.28,95.1-43.76,24.39-96.56,48.18-152.72,68.79-25.68,9.42-51.26,17.89-76.14,25.22-29.57,8.74-58.15,15.87-84.82,21.16-95.09,18.83-135,8.71-140.27-5.67-2.93-8,3.31-22.38,25.41-42.27,9.65-8.7,22.36-18.45,38.66-29.2.28-.2.59-.4.91-.59.59-.4,1.21-.79,1.82-1.21L100.65,260l-3.17-4.88c-38.05,24.71-81.34,59.87-71.36,87,3.85,10.49,14.4,16.81,28.74,20.23,33.75,8,88.32,0,124.65-7.17a1005.43,1005.43,0,0,0,102.06-26.3c20-6.2,40.27-13.06,60.64-20.56,56.72-20.82,110.1-44.87,154.37-69.56C542.67,213,618,164.7,605.1,129.48Z"/><path class="cls-3" d="M85.48,393.36c-46.73,0-76.1-10.51-83.61-31C-8.58,333.93,25,293.26,96.48,247.88l6.43-4.09,1.25,7.52a208.89,208.89,0,0,0,6,25.72l1,3.49-3,2.09C83,300.3,85,306.7,85,306.77s2.73,6.39,34.55,3.31c45.17-4.37,123-25.37,203.17-54.8s153.09-63.8,190.36-89.69c26.24-18.25,24.21-24.82,24.19-24.88s-2.66-6.23-33.29-3.43l-3.63.33-1.45-3.34a210.44,210.44,0,0,0-12.08-23.47l-3.92-6.54,7.55-1.05c83.85-11.64,135.78-2.38,146.23,26.09h0c11.43,31.13-30.68,77.52-115.54,127.26-48.28,28.31-106.79,55.38-169.2,78.3S227.43,375,172.3,384.66C139.05,390.49,109.89,393.36,85.48,393.36Zm10.1-132.9c-61,39.77-92.35,76.35-84.24,98.46,9.31,25.33,70.32,31.39,159.22,15.8,54.55-9.56,116.08-26.62,177.94-49.34s119.81-49.52,167.58-77.52C594,202.21,636.55,158.11,627.25,132.78c-8.12-22.11-55.73-29.68-127.94-20.56,2.65,4.8,5.12,9.72,7.4,14.71,24.07-1.81,36.84,1.49,40.07,10.3,3.44,9.37-5.42,21-27.9,36.65-38.5,26.75-110.51,60.72-192.64,90.87s-159,50.86-205.68,55.38c-27.26,2.63-41.55-.51-45-9.89-3.23-8.8,4.38-19.58,23.9-33.78C98,271.18,96.67,265.83,95.58,260.46Z"/><g class="cls-7"><path class="cls-8" d="M516,170.46q-6.37,4.42-14.11,9.19c-1.57-5.72-3.39-11.43-5.47-17.09l-1-2.62q-1.81-4.81-3.86-9.46a216.14,216.14,0,0,0-12.38-24c-.55-.92-1.11-1.82-1.68-2.73a209.63,209.63,0,0,0-23.78-31.41,212.63,212.63,0,0,0-325.81,14.62,212.51,212.51,0,0,1,361.59-.72c.58.91,1.13,1.83,1.68,2.75a211.74,211.74,0,0,1,12.37,24q2,4.67,3.87,9.45c.34.87.67,1.74,1,2.64A213.91,213.91,0,0,1,516,170.46Z"/></g><path class="cls-3" d="M117.16,320.46l-1.57-3a219.73,219.73,0,0,1-10.91-24.85c-1.54-4.18-3-8.44-4.21-12.64a219.06,219.06,0,0,1-6.27-27C77.14,150.11,135.9,49.34,233.93,13.35s208,2.81,261.59,92.27a219.83,219.83,0,0,1,12.67,24.61c1.76,4,3.43,8.19,5,12.36h0a222.39,222.39,0,0,1,7.76,26l.77,3.34-2.81,1.95c-38.5,26.75-110.51,60.72-192.64,90.87s-159,50.86-205.68,55.38ZM308.86,10.09a206.92,206.92,0,0,0-71.45,12.73C143.93,57.14,87.89,153.24,104.16,251.31a208.89,208.89,0,0,0,6,25.72c1.2,4,2.55,8.07,4,12.06A210.79,210.79,0,0,0,123,309.73c45.62-5.07,121.59-25.75,199.75-54.45s149.47-62.09,187.52-87.75a208.11,208.11,0,0,0-6.6-21.46h0c-1.46-4-3.06-7.95-4.74-11.79a209.72,209.72,0,0,0-12.08-23.48A207.45,207.45,0,0,0,308.86,10.09Z"/><g class="cls-9"><path class="cls-3" d="M254.58,283.8h0c-55.24,17.24-103,28.25-134.51,31.31-22.9,2.21-37.26.23-39.77-6.61s6.81-17.23,25-30c-1.5-5-2.79-10.06-3.92-15.1h0C42.31,302.61,9.75,340.16,19,365.3c2.67,7.27,8.69,13.08,17.6,17.45-.84-.24-1.66-.49-2.47-.75,29,9.18,77.6,8.16,137.32-2.31,52.95-9.28,114.57-26,178.81-49.57,5-1.83,9.9-3.69,14.8-5.56C184.74,363.33,254.58,283.8,254.58,283.8Z"/></g><g class="cls-9"><path class="cls-3" d="M259.62,254.51c63.73-.85,196.83-56.67,251.88-81.73,1.55-1,3.06-2.05,4.5-3.05-1.35-5.82,3-1.17,1.19-6.94C482.47,179.69,319.85,252,247.25,253c-3.17,0-6.34-.06-9.5-.28A113.92,113.92,0,0,0,259.62,254.51Z"/></g><g class="cls-9"><path class="cls-3" d="M517.19,162.79C482.47,179.69,319.85,252,247.25,253c-38.08.51-76.11-17.76-84.1-55-.14-.68-.26-1.26-.33-1.74s-.12-.71-.18-1.08A209.76,209.76,0,0,1,160.05,156,213.1,213.1,0,0,1,191,51.23a212.29,212.29,0,0,0-79.59,201.39c.05.35.11.71.17,1.07A213.42,213.42,0,0,0,117.68,280q1.66,5.6,3.68,11.17l.42,1.18A219.56,219.56,0,0,0,131,313.81c-1.8.24-3.56.47-5.29.68C170.65,309.14,244,289.59,324.5,260c84-30.86,155-64.93,191.5-90.29C514.65,163.91,519.05,168.56,517.19,162.79Z"/></g><g class="cls-9"><path class="cls-3" d="M191.85,382.05a212.57,212.57,0,0,0,319.41-118.4c1.11-3.75,2.1-7.54,3-11.36-45.89,26.64-102.62,53.17-165.57,76.28-59.13,21.71-116,37.57-166,47.2C185.7,377.94,188.74,380.05,191.85,382.05Z"/></g></g></g></svg>