<?xml version="1.0" standalone="no"?>
<!DOCTYPE svg PUBLIC "-//W3C//DTD SVG 20010904//EN"
 "http://www.w3.org/TR/2001/REC-SVG-20010904/DTD/svg10.dtd">
<svg version="1.0" xmlns="http://www.w3.org/2000/svg"
 width="1478.000000pt" height="1478.000000pt" viewBox="0 0 1478.000000 1478.000000"
 preserveAspectRatio="xMidYMid meet">
<metadata>
Created by potrace 1.14, written by Peter Selinger 2001-2017
</metadata>
<g transform="translate(0.000000,1478.000000) scale(0.100000,-0.100000)"
fill="#000000" stroke="none">
<path d="M7169 14775 c-2 -2 -38 -6 -79 -10 -127 -11 -156 -14 -186 -19 -16
-3 -64 -11 -106 -18 -43 -7 -78 -16 -78 -21 0 -4 -4 -5 -10 -2 -15 10 -297
-61 -402 -101 -21 -7 -38 -11 -38 -8 0 4 -6 2 -12 -3 -7 -6 -49 -23 -93 -38
-44 -16 -84 -32 -90 -37 -5 -4 -17 -8 -27 -8 -10 0 -18 -4 -18 -10 0 -5 -3 -9
-7 -8 -16 3 -270 -119 -348 -167 -22 -14 -49 -29 -60 -34 -11 -5 -44 -25 -72
-45 -29 -20 -57 -36 -62 -36 -6 0 -15 -8 -20 -17 -6 -10 -11 -15 -11 -10 0 4
-51 -31 -114 -77 -108 -80 -139 -105 -192 -151 -12 -11 -43 -38 -70 -60 -64
-55 -205 -196 -284 -285 -36 -40 -69 -78 -75 -84 -5 -6 -28 -34 -49 -61 -22
-28 -46 -56 -55 -62 -8 -7 -11 -13 -7 -13 7 0 -33 -58 -66 -94 -10 -11 -20
-28 -24 -38 -3 -10 -10 -18 -15 -18 -5 0 -9 -5 -9 -10 0 -9 -49 -87 -78 -125
-4 -5 -13 -21 -20 -35 -7 -14 -24 -45 -39 -70 -35 -62 -163 -317 -163 -327 -1
-4 -9 -26 -20 -48 -11 -22 -19 -44 -20 -48 0 -5 -7 -23 -15 -40 -22 -48 -94
-267 -88 -267 3 0 0 -6 -6 -13 -6 -8 -8 -16 -6 -19 3 -3 -9 -11 -27 -18 -18
-7 -57 -24 -86 -37 -29 -12 -57 -23 -62 -23 -6 0 -10 -5 -10 -12 0 -6 -3 -9
-6 -5 -4 3 -33 -7 -65 -24 -33 -16 -59 -26 -59 -23 0 4 -6 2 -13 -4 -7 -6 -46
-28 -87 -49 -41 -21 -77 -40 -80 -43 -3 -3 -22 -14 -43 -25 -21 -11 -47 -28
-57 -37 -11 -10 -22 -18 -26 -18 -14 0 -85 -85 -91 -109 -3 -14 -9 -30 -13
-36 -5 -5 -11 -28 -15 -50 -4 -22 -9 -49 -12 -60 -2 -11 -6 -38 -9 -60 -3 -22
-7 -51 -10 -65 -26 -160 -20 -648 11 -896 3 -22 8 -60 11 -85 3 -24 12 -82 20
-129 9 -47 18 -98 20 -115 16 -98 85 -335 118 -410 8 -16 20 -43 27 -60 18
-40 80 -147 93 -162 6 -6 26 -30 45 -52 19 -23 40 -41 47 -41 8 0 14 -3 14 -8
0 -4 15 -13 33 -20 17 -8 41 -17 52 -22 11 -4 34 -13 50 -18 17 -6 39 -14 50
-18 11 -4 25 -9 30 -10 6 -1 12 -3 15 -4 3 -1 12 -3 20 -5 8 -2 49 -13 90 -24
41 -11 76 -18 79 -16 2 3 10 0 18 -6 7 -6 13 -9 13 -6 0 3 15 1 33 -4 17 -5
48 -12 67 -15 19 -3 42 -8 50 -11 8 -3 26 -7 40 -8 109 -11 190 -40 190 -67 0
-5 6 -16 13 -23 19 -22 29 -36 80 -107 26 -36 53 -72 59 -80 7 -7 31 -36 53
-63 84 -107 377 -405 397 -405 7 0 6 -6 -2 -15 -7 -9 -15 -14 -17 -11 -2 2
-36 -11 -74 -30 -38 -19 -74 -34 -78 -34 -5 0 -11 -3 -13 -7 -1 -5 -32 -22
-68 -40 -85 -42 -144 -76 -148 -85 -2 -5 -8 -8 -13 -8 -9 0 -208 -127 -219
-140 -15 -17 -59 -36 -90 -38 -61 -5 -153 -31 -209 -60 -49 -24 -142 -105
-181 -157 -39 -52 -87 -173 -93 -238 -2 -15 -73 -111 -114 -155 -7 -7 -13 -16
-13 -20 0 -4 -14 -21 -30 -39 -17 -18 -30 -35 -30 -38 0 -4 -11 -21 -25 -39
-14 -18 -25 -38 -25 -44 0 -6 -4 -12 -9 -14 -22 -8 -166 -270 -231 -423 -19
-44 -35 -82 -36 -85 0 -3 -6 -18 -13 -35 -7 -16 -14 -34 -15 -40 -1 -5 -4 -14
-7 -20 -5 -8 -15 -39 -25 -80 -1 -5 -9 -30 -17 -55 -21 -62 -24 -75 -58 -230
-34 -156 -34 -415 1 -565 7 -27 13 -54 14 -60 10 -42 32 -107 49 -145 10 -25
20 -49 21 -55 2 -14 49 -109 57 -115 3 -3 14 -21 24 -40 48 -93 187 -254 294
-340 24 -19 49 -41 56 -47 8 -7 16 -13 18 -13 3 0 29 -16 59 -35 130 -86 419
-205 552 -227 17 -3 18 -5 5 -18 -15 -16 -60 -96 -59 -105 0 -3 0 -6 -1 -7
-42 -138 7 -286 126 -386 35 -29 127 -63 188 -69 l65 -6 -32 -61 c-41 -78 -83
-191 -91 -247 -4 -24 -9 -47 -11 -51 -5 -8 -17 -119 -18 -173 -1 -16 -5 -33
-10 -36 -5 -4 -5 -12 -1 -19 5 -7 9 -52 11 -99 1 -47 5 -95 7 -107 3 -12 8
-45 12 -75 4 -30 9 -57 10 -60 2 -3 7 -28 10 -55 4 -27 9 -60 11 -74 5 -27 11
-63 20 -125 3 -22 8 -50 10 -62 6 -34 11 -62 19 -118 4 -27 9 -59 11 -70 2
-11 7 -40 10 -65 3 -25 8 -54 10 -65 3 -11 7 -39 10 -61 2 -23 7 -53 10 -65 2
-13 7 -40 9 -59 3 -19 10 -62 16 -95 6 -33 13 -78 16 -100 9 -76 11 -90 13
-90 3 0 9 -38 15 -93 4 -29 9 -63 11 -75 3 -12 7 -35 10 -52 3 -16 7 -36 9
-42 4 -13 -20 -30 -52 -36 -10 -2 -25 -6 -33 -9 -8 -3 -44 -16 -80 -28 -312
-108 -565 -338 -682 -620 -48 -114 -70 -226 -71 -353 -1 -128 6 -184 32 -277
7 -25 15 -52 16 -61 6 -31 85 -180 117 -222 47 -60 140 -151 190 -185 89 -60
205 -114 275 -127 16 -3 39 -8 53 -11 39 -10 268 -12 335 -3 33 4 78 10 100
13 33 4 255 57 290 70 6 2 12 4 15 4 3 1 39 13 80 28 41 14 80 27 85 28 30 7
92 30 103 39 6 5 12 7 12 3 0 -4 13 0 30 9 16 8 32 15 35 14 3 0 29 8 58 19
61 23 90 35 97 37 3 1 18 7 34 14 17 6 86 35 155 63 69 28 130 55 135 60 6 4
18 8 28 8 10 0 18 5 18 10 0 6 4 10 9 10 5 0 38 13 73 29 35 16 67 29 72 29 5
0 12 4 15 9 3 4 35 23 71 41 94 47 184 96 190 103 3 3 20 14 38 23 108 55 342
243 342 274 0 6 7 12 15 16 18 6 68 112 60 126 -3 5 -1 12 5 15 8 5 7 11 -1
21 -6 8 -7 14 -2 14 6 0 9 12 6 28 -2 15 -5 68 -8 117 -5 96 -9 154 -21 305
-4 52 -8 119 -8 147 -1 29 -3 53 -6 53 -3 0 -5 19 -6 43 -1 59 -14 235 -20
276 -3 19 -7 64 -10 100 -5 98 -13 189 -19 251 -4 30 -9 84 -11 120 -6 80 -10
126 -29 340 -3 36 -7 86 -10 112 l-4 47 52 10 c86 17 127 23 257 37 96 10 359
11 448 2 42 -4 100 -10 127 -13 45 -4 68 -8 115 -20 8 -2 23 -4 32 -4 21 -1
50 -30 43 -42 -6 -9 -9 -35 -21 -174 -8 -96 -10 -128 -19 -220 -3 -38 -8 -95
-10 -125 -4 -59 -11 -138 -20 -235 -4 -33 -8 -87 -10 -120 -3 -33 -7 -82 -9
-110 -2 -27 -7 -88 -10 -135 -4 -47 -9 -112 -12 -145 -6 -61 -10 -120 -18
-235 -2 -36 -8 -108 -12 -160 -4 -52 -7 -147 -8 -210 -1 -105 1 -119 24 -160
14 -24 32 -51 40 -60 8 -9 27 -30 41 -46 36 -41 97 -95 141 -124 21 -14 38
-28 38 -32 0 -5 6 -8 13 -8 8 0 22 -9 32 -20 10 -11 22 -20 27 -20 5 0 29 -13
53 -30 24 -16 48 -30 53 -30 6 0 12 -3 14 -7 4 -9 29 -23 198 -109 69 -35 131
-64 138 -64 6 0 12 -4 12 -10 0 -5 8 -10 18 -10 10 0 22 -4 28 -9 5 -5 45 -24
89 -42 44 -18 83 -37 86 -42 3 -5 9 -8 13 -7 8 2 51 -13 113 -41 24 -11 47
-19 53 -19 6 0 18 -4 28 -9 41 -21 190 -79 222 -86 8 -2 53 -17 100 -34 85
-30 269 -88 306 -96 10 -2 55 -13 99 -23 44 -11 87 -20 95 -20 8 -1 35 -5 60
-9 57 -9 303 -10 350 -2 78 15 139 34 215 69 111 51 184 108 295 229 28 30 79
116 110 184 46 102 79 261 82 392 1 85 -29 241 -64 334 -16 42 -32 84 -35 93
-3 10 -9 18 -14 18 -5 0 -9 6 -9 13 0 43 -210 292 -282 335 -16 9 -28 20 -28
24 0 4 -6 8 -14 8 -8 0 -16 3 -18 8 -7 16 -183 112 -263 143 -53 21 -131 44
-175 53 -18 4 -17 68 5 176 5 24 14 84 20 130 2 14 6 39 9 55 3 17 8 48 10 70
3 22 8 51 11 65 3 14 8 43 11 65 3 22 8 51 10 65 3 14 7 39 8 55 2 17 5 30 6
30 1 0 3 9 4 20 3 26 17 112 21 133 1 10 6 37 9 62 3 25 8 56 11 70 3 14 7 43
10 65 10 71 11 74 17 81 4 3 4 12 2 18 -3 7 0 33 6 57 6 24 12 62 14 85 2 22
6 49 9 60 6 20 17 96 22 149 2 17 4 30 5 30 10 0 15 255 6 320 -2 17 -7 50
-10 75 -3 25 -13 70 -22 100 -8 30 -16 60 -18 65 -8 34 -32 95 -48 123 -10 18
-18 39 -18 46 0 8 -4 16 -9 18 -4 2 -12 14 -16 28 -4 14 -4 22 0 18 4 -3 27
-1 51 7 24 7 44 10 44 7 0 -4 4 -2 8 3 4 6 20 17 36 25 48 25 114 98 144 158
23 50 27 69 26 147 -1 95 -22 162 -67 213 -26 28 -19 34 63 57 36 10 71 23 78
28 6 5 12 7 12 4 0 -12 234 96 263 121 9 8 17 12 17 9 0 -8 115 70 180 122 50
40 152 142 190 191 14 18 30 37 35 44 23 28 125 198 125 211 1 6 7 19 14 30
12 18 49 109 52 128 1 4 3 9 4 12 1 3 4 10 5 15 1 6 3 11 5 13 1 1 3 9 5 17 1
8 8 33 13 55 26 96 36 189 35 325 -1 109 -8 235 -14 235 -1 0 -3 9 -4 20 -7
59 -94 371 -122 435 -3 8 -7 18 -8 23 -2 4 -4 9 -5 12 -1 3 -3 8 -4 13 -1 4
-10 24 -19 46 -9 21 -17 40 -17 42 0 7 -106 218 -140 279 -43 77 -83 139 -92
143 -5 2 -8 8 -8 13 0 11 -42 72 -52 77 -5 2 -8 10 -8 18 0 8 -4 14 -8 14 -4
0 -15 12 -24 28 -9 15 -28 40 -42 55 -20 22 -26 39 -27 75 -3 207 -118 394
-290 470 -104 46 -125 50 -255 56 -51 2 -69 8 -100 32 -44 34 -162 111 -214
140 -19 10 -40 24 -46 30 -7 6 -93 51 -191 100 -98 49 -180 90 -182 91 -2 2
18 22 45 45 78 69 219 214 308 317 99 115 216 267 216 280 0 5 4 11 8 13 4 2
18 19 30 39 17 29 30 38 60 42 20 3 48 8 62 11 13 3 40 8 60 11 47 7 55 9 195
40 268 59 433 118 495 177 42 38 114 142 151 218 53 108 127 345 144 465 2 11
4 20 5 20 6 0 30 146 46 280 3 28 7 61 9 75 28 208 33 669 9 850 -3 25 -7 59
-9 75 -6 62 -36 183 -54 221 -38 79 -114 135 -326 243 -49 25 -92 46 -95 47
-3 0 -18 7 -35 14 -16 7 -33 13 -37 12 -5 -1 -8 2 -8 7 0 5 -10 12 -22 16 -13
4 -25 8 -28 10 -3 1 -14 5 -25 10 -66 26 -135 59 -136 64 -5 43 -79 255 -132
381 -5 14 -11 30 -12 36 -6 25 -144 298 -198 389 -68 115 -177 278 -189 283
-4 2 -8 8 -8 14 0 9 -20 36 -63 88 -10 12 -69 86 -102 128 -5 8 -84 89 -175
181 -245 248 -512 453 -770 592 -25 13 -47 26 -50 29 -6 6 -142 75 -150 76 -3
0 -32 13 -65 28 -168 79 -464 186 -512 186 -11 0 -23 4 -28 8 -6 5 -35 14 -65
21 -30 6 -66 14 -80 17 -46 11 -224 44 -269 50 -41 5 -62 8 -156 19 -49 6
-561 15 -566 10z"/>
</g>
</svg>
