<svg xmlns="http://www.w3.org/2000/svg" viewBox="0 0 574.26 634.58"><g id="Layer_2" data-name="Layer 2"><g id="Layer_1-2" data-name="Layer 1"><path d="M371.34,134.64c-92.19,92-182.73,182.7-274.74,274.45-2.52,2.51-2.45,3.72,0,6.16,54.55,50.69,104,111.09,161.08,157q113.47-.12,226.94,0c11.06,0,19.4-4.19,23.9-14.64,4.19-9.74,1.87-18.82-6.87-27.56C238,248.83,239.22,385.87,501.88,105c17.36-15.56,6.3-43-17.1-41.85-77.44,2.9-158.65-5.75-234.33,3.08Q148.92,167.94,47.37,269.61c-3.68,3.69-5.49,3.69-9.06,0C26.43,257.18,14.2,245.14,2,233.13c-2.39-2.34-2.75-3.61-.16-6.19Q113.6,115.39,225.19,3.62c86.1-7.69,176.85-.4,264.45-2.55C523.7,1.24,549,17.75,564.33,47.8c23.22,41.19,2.75,85.88-30.78,114.46-52,50-102.25,101.79-153.55,152.51-2.31,2.28-2.4,3.46,0,5.79C431.8,371.7,482.42,424.07,535,474.47c62.65,47,45.6,148.09-35.44,159.2-88.73,1.92-177.61.09-266.39.79-72.7-57.89-135.24-135-204.46-199.33-13.5-13.51-13.57-32.35-.11-45.82Q154.2,263.64,279.79,137.93a10,10,0,0,1,7.77-3.37C315.68,134.73,343.15,134.63,371.34,134.64Z"/><path d="M370.72,500.67c-27.84,0-55.37,0-83.18.05a8.88,8.88,0,0,1-7-2.69q-41.25-41.46-82.7-82.71c-2.35-2.34-2.81-3.61-.17-6.19,12.86-12.58,25.54-25.36,38.18-38.16,2-2,3.07-2.64,5.45-.25C284.21,414.25,328.18,456.78,370.72,500.67Z"/></g></g></svg>